<svg xmlns="http://www.w3.org/2000/svg" viewBox="0 0 138.99 65.71"><defs><style>.cls-1{fill:#fff;}</style></defs><g id="Layer_2" data-name="Layer 2"><g id="Layer_2-2" data-name="Layer 2"><path class="cls-1" d="M61.82,37.36c-5,0-9.28-2.81-9.28-8.93,0-5.71,4.3-9,9.25-9a7.56,7.56,0,0,1,6.15,2.4L65.19,25A5.1,5.1,0,0,0,62,24a4.21,4.21,0,0,0-4.47,4.44,4.16,4.16,0,0,0,4.37,4.26,5.36,5.36,0,0,0,3.44-1.27l3.12,3.23A8.68,8.68,0,0,1,61.82,37.36Z"/><path class="cls-1" d="M77.25,21.72a5.13,5.13,0,0,1,4.54-2.26A6.05,6.05,0,0,1,86,21l-2.06,3.92a4.52,4.52,0,0,0-2.72-.86,3.74,3.74,0,0,0-4,3.92v8.83h-5V19.87h4.61Z"/><path class="cls-1" d="M106.47,19.83v17H102l-.27-2.13c-1.1,1.93-3.58,2.65-5.23,2.65-5.08,0-8.76-3.4-8.76-9s3.78-8.86,8.66-8.86c2.27,0,4.3.79,5.26,2.33l.17-2ZM92.69,28.32a4.26,4.26,0,0,0,4.47,4.47,4.49,4.49,0,1,0,0-9A4.29,4.29,0,0,0,92.69,28.32Z"/><path class="cls-1" d="M113.62,24.2h-3V20h3v-.89c0-4.92,3.54-6.84,6.88-6.84a8.13,8.13,0,0,1,4.71,1.44l-1.69,3.47a4.45,4.45,0,0,0-2.44-.69,2.33,2.33,0,0,0-2.51,2.62V20h4.71V24.2h-4.71V36.81h-4.95Z"/><path class="cls-1" d="M133.9,19.94h4.3v4.12h-4.33v6.53c0,1.79,1,2.27,1.92,2.27a5.45,5.45,0,0,0,2.06-.41L139,36.57a10.43,10.43,0,0,1-3.58.76c-3.67.17-6.46-1.44-6.46-6.74V24.06h-3V19.94h3v-4.2l5-.55Z"/><path class="cls-1" d="M58.52,50.21a6.29,6.29,0,0,1,5.16-2.37c4,0,6.77,2.1,6.77,8.15v9.17h-5V56c0-2.37-1.27-3.68-3.23-3.68s-3.78,1.41-3.78,4.16v8.66h-5V41.1h5Z"/><path class="cls-1" d="M80.42,57.36c0,2.65,1.17,4,3.5,4a3.93,3.93,0,0,0,3.85-4.16v-9h4.88v17H88.19L88,63.14a6.13,6.13,0,0,1-5.32,2.57c-3.89,0-7.26-1.61-7.26-8.31V48.18h5Z"/><path class="cls-1" d="M103.1,50.25a6.4,6.4,0,0,1,5.33-2.44c5,0,8.46,3.36,8.46,8.86,0,5.3-3.41,9-8.39,9A6.12,6.12,0,0,1,102.86,63l-.31,2.16H98.12v-24h5Zm.07,6.42c0,3.23,2.34,4.37,4.57,4.37a4,4,0,0,0,4.16-4.37,4,4,0,0,0-4.16-4.36A4.31,4.31,0,0,0,103.17,56.67Z"/><path class="cls-1" d="M37.85,19.58A14.63,14.63,0,0,0,34.27,10,5.09,5.09,0,1,0,27.8,5.1a5.29,5.29,0,0,0,.05.56A14.68,14.68,0,0,0,9.06,15.37a5.09,5.09,0,1,0-.37,6.8A14.69,14.69,0,0,0,23.15,34.28,15,15,0,0,0,25.92,34a5.1,5.1,0,1,0,6.35-2.93A14.66,14.66,0,0,0,37.85,19.58ZM18.18,27.76V11.49l14.1,8.14Z"/></g></g></svg>