<svg width="181" height="62" viewBox="0 0 181 62" fill="none" xmlns="http://www.w3.org/2000/svg">
<path d="M42.2492 38.3415C42.2492 40.2706 41.0763 41.2166 39.6389 41.2166C38.2016 41.2166 36.991 40.2706 36.991 38.3415V17.8013H32.7542V38.1144C32.7542 40.1572 33.4354 41.8594 34.6079 43.07C35.8939 44.394 37.6338 45.0371 39.6389 45.0371C41.6441 45.0371 43.3463 44.394 44.632 43.07C45.8048 41.8594 46.486 40.1572 46.486 38.1144V17.8013H42.2492V38.3415Z" fill="white"/>
<path d="M59.7251 29.7167L56.5477 28.4305C54.656 27.6739 54.3161 26.9931 54.3161 24.7991C54.3161 23.6266 54.5426 22.7186 55.0346 22.1512C55.4506 21.6972 55.98 21.3946 56.8503 21.3946C57.7583 21.3946 58.3634 21.6972 58.7417 22.1892C59.3091 22.9077 59.3845 23.8534 59.3845 25.0637H63.6213C63.6213 22.4917 63.1296 20.5627 61.7302 19.2007C60.6331 18.1415 59.0442 17.5741 56.8883 17.5741C54.9589 17.5741 53.4458 18.1792 52.2732 19.2007C50.7981 20.5246 50.0793 22.4917 50.0793 24.9125C50.0793 29.0739 51.1004 30.549 53.8244 31.6835L57.0394 33.0078C59.1199 33.8398 59.5739 34.5587 59.5739 37.4338C59.5739 38.8712 59.4225 39.7788 58.8551 40.4217C58.4391 40.9137 57.796 41.1785 56.8123 41.1785C55.8666 41.1785 55.2237 40.876 54.8455 40.46C54.24 39.7788 54.0889 38.8712 54.0889 37.4338H49.8521C49.8521 40.2705 50.3058 41.9351 51.5921 43.2211C52.7269 44.3559 54.4672 44.999 56.8123 44.999C59.1957 44.999 60.9736 44.2802 62.0705 43.2211C63.4321 41.8974 63.8104 40.0437 63.8104 37.282C63.8104 32.743 62.9404 31.0407 59.7251 29.7167Z" fill="white"/>
<path d="M66.0045 21.6217H70.5058V44.7344H74.7426V21.6217H79.282V17.8012H66.0045V21.6217Z" fill="white"/>
<path d="M82.3457 44.7344H93.6561V40.9136H86.5825V33.0835H92.6727V29.263H86.5825V21.6217H93.6561V17.8012H82.3457V44.7344Z" fill="white"/>
<path d="M104.172 29.8681H101.562V21.6217H104.172C106.442 21.6217 106.782 23.5131 106.782 25.745C106.782 27.977 106.442 29.8681 104.172 29.8681ZM111.019 25.745C111.019 20.1843 109.052 17.8012 104.134 17.8012H97.3254V44.7344H101.562V33.6889H103.945L107.463 44.7344H111.889L107.879 32.7809C110.338 31.4569 111.019 29.0738 111.019 25.745Z" fill="white"/>
<path d="M165.51 7.77075L158.308 21.501L171.17 52.3787L177.432 49.4269L180.753 12.0714L165.51 7.77075Z" fill="white"/>
<path d="M145.327 2.07594V34.812L160.284 6.29621L145.327 2.07594Z" fill="white"/>
<path d="M145.327 46.2496V57.4746L152.778 61.0486L166.359 54.6462L155.1 27.6167L145.327 46.2496Z" fill="#FFFF00"/>
<path d="M120.569 4.68343L132.357 51.2532L140.014 54.9263V45.3219L139.857 45.2397L140.014 44.9408V0.577209L139.857 0.532963L120.569 4.68343Z" fill="white"/>
<path d="M22.7303 17.8012H18.4935V44.7344H29.8038V40.9136H22.7303V17.8012Z" fill="white"/>
<path d="M15.1268 17.8012H10.8524L4.98935 30.4732V17.8012H0.752563V44.7344H4.98935V37.8119L7.03187 33.6509L11.3818 44.7344H15.9591L9.71783 28.9604L15.1268 17.8012Z" fill="white"/>
</svg>
