<svg xmlns="http://www.w3.org/2000/svg" xmlns:xlink="http://www.w3.org/1999/xlink" width="940" zoomAndPan="magnify" viewBox="250 250 960 220" height="216" preserveAspectRatio="xMidYMid meet" version="1.0"><path fill="#ffffff" d="M 270.910156 296.382812 L 270.910156 311.644531 L 291.636719 311.644531 L 291.636719 374.605469 L 310.691406 374.605469 L 310.691406 311.644531 L 331.414062 311.644531 L 331.414062 296.382812 Z M 270.910156 296.382812 " fill-opacity="1" fill-rule="nonzero"/><path fill="#ffffff" d="M 404.195312 341.621094 C 404.195312 335.382812 402.875 329.921875 400.242188 325.242188 C 397.605469 320.558594 393.945312 316.957031 389.265625 314.433594 C 384.582031 311.90625 379.234375 310.644531 373.21875 310.644531 C 367.203125 310.644531 361.589844 311.945312 356.839844 314.546875 C 352.085938 317.144531 348.386719 320.859375 345.75 325.6875 C 343.113281 330.515625 341.796875 336.164062 341.796875 342.625 C 341.796875 349.085938 343.136719 354.734375 345.808594 359.558594 C 348.480469 364.386719 352.199219 368.105469 356.953125 370.703125 C 361.707031 373.304688 367.132812 374.605469 373.21875 374.605469 C 378.269531 374.605469 382.835938 373.675781 386.925781 371.816406 C 391.011719 369.957031 394.410156 367.394531 397.121094 364.128906 C 399.828125 360.859375 401.707031 357.183594 402.75 353.101562 L 382.46875 353.101562 C 380.609375 357.109375 377.300781 359.113281 372.546875 359.113281 C 369.355469 359.113281 366.660156 358.09375 364.46875 356.050781 C 362.277344 354.007812 361.03125 351.058594 360.734375 347.191406 L 403.859375 347.191406 C 404.082031 345.261719 404.1875 343.402344 404.1875 341.621094 Z M 360.851562 336.609375 C 361.367188 333.191406 362.722656 330.554688 364.921875 328.695312 C 367.109375 326.84375 369.800781 325.90625 372.996094 325.90625 C 376.195312 325.90625 379.128906 326.875 381.351562 328.808594 C 383.582031 330.738281 384.695312 333.335938 384.695312 336.609375 Z M 360.851562 336.609375 " fill-opacity="1" fill-rule="nonzero"/><path fill="#ffffff" d="M 445.089844 358.339844 C 441.597656 358.339844 438.816406 356.988281 436.738281 354.269531 C 434.652344 351.5625 433.617188 347.679688 433.617188 342.628906 C 433.617188 337.578125 434.652344 333.699219 436.738281 330.984375 C 438.816406 328.277344 441.597656 326.917969 445.089844 326.917969 C 449.996094 326.917969 453.300781 329.296875 455.011719 334.050781 L 475.292969 334.050781 C 473.652344 326.621094 470.21875 320.863281 464.980469 316.773438 C 459.742188 312.691406 453.222656 310.644531 445.421875 310.644531 C 439.328125 310.644531 433.925781 311.945312 429.207031 314.546875 C 424.488281 317.144531 420.8125 320.859375 418.179688 325.6875 C 415.542969 330.515625 414.222656 336.164062 414.222656 342.625 C 414.222656 349.085938 415.542969 354.734375 418.179688 359.558594 C 420.8125 364.386719 424.492188 368.105469 429.207031 370.703125 C 433.925781 373.304688 439.328125 374.605469 445.421875 374.605469 C 453.148438 374.605469 459.648438 372.519531 464.925781 368.363281 C 470.199219 364.203125 473.652344 358.484375 475.285156 351.203125 L 455.007812 351.203125 C 453.292969 355.957031 449.988281 358.332031 445.085938 358.332031 Z M 445.089844 358.339844 " fill-opacity="1" fill-rule="nonzero"/><path fill="#ffffff" d="M 544.488281 320.953125 C 540.179688 316.234375 534.457031 313.878906 527.324219 313.878906 C 523.167969 313.878906 519.417969 314.695312 516.074219 316.328125 C 512.730469 317.960938 510.097656 320.152344 508.164062 322.902344 L 508.164062 294.269531 L 489.109375 294.269531 L 489.109375 376.726562 L 508.164062 376.726562 L 508.164062 342.964844 C 508.164062 338.804688 509.242188 335.570312 511.394531 333.265625 C 513.550781 330.960938 516.445312 329.8125 520.089844 329.8125 C 523.730469 329.8125 526.625 330.96875 528.78125 333.265625 C 530.933594 335.570312 532.015625 338.800781 532.015625 342.964844 L 532.015625 357.796875 L 550.960938 357.796875 L 550.960938 340.394531 C 550.960938 332.148438 548.800781 325.671875 544.496094 320.953125 Z M 532.003906 368.132812 L 532.003906 376.726562 L 550.949219 376.726562 L 550.949219 368.132812 Z M 532.003906 368.132812 " fill-opacity="1" fill-rule="nonzero"/><path fill="#ffffff" d="M 310.710938 433.304688 L 310.710938 384.945312 L 291.65625 384.945312 L 291.65625 448.011719 L 335.671875 448.011719 L 335.671875 433.304688 Z M 291.65625 369.789062 L 291.65625 374.609375 L 310.710938 374.609375 L 310.710938 369.789062 Z M 291.65625 369.789062 " fill-opacity="1" fill-rule="nonzero"/><path fill="#ffffff" d="M 403.417969 415.917969 C 403.417969 409.683594 402.097656 404.21875 399.464844 399.539062 C 396.824219 394.855469 393.164062 391.257812 388.484375 388.730469 C 383.800781 386.207031 378.457031 384.945312 372.4375 384.945312 C 366.421875 384.945312 360.8125 386.242188 356.058594 388.84375 C 351.304688 391.445312 347.609375 395.160156 344.96875 399.984375 C 342.332031 404.816406 341.019531 410.460938 341.019531 416.921875 C 341.019531 423.386719 342.355469 429.03125 345.03125 433.859375 C 347.703125 438.6875 351.417969 442.402344 356.171875 445.003906 C 360.925781 447.601562 366.351562 448.902344 372.4375 448.902344 C 377.488281 448.902344 382.054688 447.972656 386.148438 446.117188 C 390.230469 444.257812 393.628906 441.695312 396.34375 438.429688 C 399.050781 435.15625 400.925781 431.480469 401.96875 427.398438 L 381.691406 427.398438 C 379.832031 431.40625 376.523438 433.410156 371.773438 433.410156 C 368.578125 433.410156 365.882812 432.390625 363.695312 430.351562 C 361.503906 428.304688 360.253906 425.355469 359.960938 421.488281 L 403.085938 421.488281 C 403.308594 419.5625 403.417969 417.703125 403.417969 415.917969 Z M 360.074219 410.90625 C 360.589844 407.488281 361.945312 404.851562 364.140625 402.992188 C 366.328125 401.140625 369.023438 400.210938 372.21875 400.210938 C 375.414062 400.210938 378.347656 401.171875 380.574219 403.105469 C 382.800781 405.035156 383.914062 407.636719 383.914062 410.90625 Z M 360.074219 410.90625 " fill-opacity="1" fill-rule="nonzero"/><path fill="#ffffff" d="M 456.238281 385.835938 L 456.238281 394.640625 C 454.453125 391.746094 451.90625 389.402344 448.601562 387.617188 C 445.292969 385.835938 441.449219 384.945312 437.066406 384.945312 C 431.941406 384.945312 427.296875 386.242188 423.136719 388.84375 C 418.976562 391.445312 415.6875 395.160156 413.273438 399.984375 C 410.859375 404.816406 409.652344 410.421875 409.652344 416.8125 C 409.652344 423.199219 410.859375 428.832031 413.273438 433.691406 C 415.6875 438.558594 418.972656 442.308594 423.136719 444.945312 C 427.292969 447.585938 431.902344 448.902344 436.953125 448.902344 C 441.332031 448.902344 445.179688 448.007812 448.488281 446.226562 C 451.792969 444.445312 454.375 442.105469 456.230469 439.207031 L 456.230469 448.007812 L 475.285156 448.007812 L 475.285156 385.832031 L 456.230469 385.832031 Z M 452.28125 428.179688 C 449.644531 430.929688 446.429688 432.304688 442.640625 432.304688 C 438.851562 432.304688 435.636719 430.910156 433 428.121094 C 430.363281 425.332031 429.050781 421.570312 429.050781 416.8125 C 429.050781 412.050781 430.363281 408.324219 433 405.613281 C 435.636719 402.90625 438.851562 401.542969 442.640625 401.542969 C 446.429688 401.542969 449.644531 402.917969 452.28125 405.664062 C 454.914062 408.414062 456.238281 412.164062 456.238281 416.917969 C 456.238281 421.671875 454.914062 425.425781 452.28125 428.167969 Z M 452.28125 428.179688 " fill-opacity="1" fill-rule="nonzero"/><path fill="#ffffff" d="M 532.003906 368.132812 C 531.964844 376.894531 531.929688 385.652344 531.894531 394.414062 C 529.960938 391.519531 527.304688 389.214844 523.925781 387.507812 C 520.546875 385.804688 516.816406 384.945312 512.722656 384.945312 C 507.597656 384.945312 502.957031 386.242188 498.796875 388.84375 C 494.636719 391.445312 491.347656 395.160156 488.933594 399.984375 C 486.515625 404.816406 485.3125 410.421875 485.3125 416.8125 C 485.3125 423.199219 486.515625 428.832031 488.933594 433.691406 C 491.347656 438.558594 494.632812 442.308594 498.796875 444.945312 C 502.953125 447.585938 507.597656 448.902344 512.722656 448.902344 C 517.109375 448.902344 520.953125 448.007812 524.261719 446.226562 C 527.566406 444.445312 530.109375 442.070312 531.894531 439.09375 L 531.894531 448.007812 L 550.949219 448.007812 L 550.949219 368.128906 L 532.003906 368.128906 Z M 527.941406 428.179688 C 525.300781 430.929688 522.09375 432.304688 518.300781 432.304688 C 514.507812 432.304688 511.296875 430.910156 508.660156 428.121094 C 506.023438 425.332031 504.707031 421.570312 504.707031 416.8125 C 504.707031 412.050781 506.023438 408.324219 508.660156 405.613281 C 511.296875 402.90625 514.511719 401.542969 518.300781 401.542969 C 522.085938 401.542969 525.300781 402.917969 527.941406 405.664062 C 530.578125 408.414062 531.894531 412.164062 531.894531 416.917969 C 531.894531 421.671875 530.578125 425.425781 527.941406 428.167969 Z M 527.941406 428.179688 " fill-opacity="1" fill-rule="nonzero"/><path fill="#ffffff" d="M 623.375 415.917969 C 623.375 409.683594 622.058594 404.21875 619.421875 399.539062 C 616.78125 394.855469 613.121094 391.257812 608.441406 388.730469 C 603.757812 386.207031 598.414062 384.945312 592.398438 384.945312 C 586.378906 384.945312 580.773438 386.242188 576.015625 388.84375 C 571.261719 391.445312 567.566406 395.160156 564.933594 399.984375 C 562.292969 404.816406 560.976562 410.460938 560.976562 416.921875 C 560.976562 423.386719 562.3125 429.03125 564.988281 433.859375 C 567.660156 438.6875 571.375 442.402344 576.128906 445.003906 C 580.882812 447.601562 586.308594 448.902344 592.398438 448.902344 C 597.445312 448.902344 602.019531 447.972656 606.105469 446.117188 C 610.1875 444.257812 613.589844 441.695312 616.300781 438.429688 C 619.007812 435.15625 620.890625 431.480469 621.925781 427.398438 L 601.648438 427.398438 C 599.789062 431.40625 596.480469 433.410156 591.730469 433.410156 C 588.535156 433.410156 585.839844 432.390625 583.652344 430.351562 C 581.460938 428.304688 580.21875 425.355469 579.921875 421.488281 L 623.042969 421.488281 C 623.265625 419.5625 623.375 417.703125 623.375 415.917969 Z M 580.03125 410.90625 C 580.546875 407.488281 581.902344 404.851562 584.097656 402.992188 C 586.285156 401.140625 588.984375 400.210938 592.175781 400.210938 C 595.367188 400.210938 598.304688 401.171875 600.535156 403.105469 C 602.757812 405.035156 603.875 407.636719 603.875 410.90625 Z M 580.03125 410.90625 " fill-opacity="1" fill-rule="nonzero"/><path fill="#ffffff" d="M 660.820312 388.121094 C 657.476562 390.085938 654.691406 392.78125 652.460938 396.199219 L 652.460938 385.835938 L 633.40625 385.835938 L 633.40625 448.011719 L 652.460938 448.011719 L 652.460938 419.152344 C 652.460938 414.027344 653.648438 410.445312 656.027344 408.402344 C 658.40625 406.355469 661.96875 405.335938 666.726562 405.335938 L 671.960938 405.335938 L 671.960938 385.164062 C 667.878906 385.164062 664.160156 386.15625 660.820312 388.121094 Z M 660.820312 388.121094 " fill-opacity="1" fill-rule="nonzero"/><path fill="#ffffff" d="M 728.175781 419.648438 C 725.984375 417.085938 723.441406 415.230469 720.539062 414.085938 C 717.644531 412.929688 713.890625 411.761719 709.285156 410.574219 C 705.273438 409.683594 702.320312 408.789062 700.429688 407.898438 C 698.535156 407.007812 697.585938 405.675781 697.585938 403.890625 C 697.585938 402.402344 698.183594 401.234375 699.371094 400.378906 C 700.554688 399.527344 702.265625 399.097656 704.496094 399.097656 C 707.09375 399.097656 709.191406 399.730469 710.792969 400.988281 C 712.386719 402.253906 713.335938 403.960938 713.632812 406.121094 L 731.234375 406.121094 C 730.570312 399.730469 727.988281 394.605469 723.492188 390.738281 C 718.996094 386.882812 712.851562 384.949219 705.050781 384.949219 C 699.777344 384.949219 695.226562 385.808594 691.398438 387.511719 C 687.574219 389.21875 684.679688 391.542969 682.707031 394.476562 C 680.738281 397.414062 679.757812 400.660156 679.757812 404.222656 C 679.757812 408.460938 680.832031 411.820312 682.984375 414.308594 C 685.140625 416.796875 687.707031 418.617188 690.671875 419.773438 C 693.644531 420.921875 697.359375 422.019531 701.820312 423.058594 C 705.976562 424.09375 708.984375 425.046875 710.84375 425.898438 C 712.703125 426.75 713.632812 428.070312 713.632812 429.851562 C 713.632812 431.335938 712.984375 432.546875 711.679688 433.472656 C 710.378906 434.40625 708.539062 434.867188 706.164062 434.867188 C 703.558594 434.867188 701.375 434.195312 699.585938 432.863281 C 697.800781 431.523438 696.800781 429.777344 696.578125 427.625 L 677.746094 427.625 C 678.039062 431.636719 679.417969 435.261719 681.867188 438.488281 C 684.316406 441.722656 687.660156 444.265625 691.894531 446.125 C 696.132812 447.984375 700.957031 448.914062 706.382812 448.914062 C 711.429688 448.914062 715.871094 448.097656 719.695312 446.460938 C 723.519531 444.824219 726.453125 442.578125 728.5 439.71875 C 730.542969 436.859375 731.558594 433.609375 731.558594 429.972656 C 731.488281 425.664062 730.347656 422.226562 728.164062 419.660156 Z M 728.175781 419.648438 " fill-opacity="1" fill-rule="nonzero"/><path fill="#ffffff" d="M 489.109375 312.992188 L 489.109375 269.855469 L 508.164062 269.855469 L 508.164062 312.992188 Z M 489.109375 312.992188 " fill-opacity="1" fill-rule="nonzero"/><path fill="#ffffff" d="M 1144.8125 441.324219 L 1144.8125 392.527344 L 1186.191406 416.9375 L 1144.8125 441.320312 Z M 1144.8125 441.324219 " fill-opacity="1" fill-rule="nonzero"/><path fill="#ffffff" d="M 754.894531 405.554688 L 738.183594 405.554688 L 748.878906 379.960938 L 759.859375 379.960938 Z M 754.894531 405.554688 " fill-opacity="1" fill-rule="nonzero"/><path fill="#ffffff" d="M 821.976562 370.023438 L 821.976562 385.070312 L 790.558594 385.070312 L 790.558594 401.328125 L 814.066406 401.328125 L 814.066406 415.9375 L 790.558594 415.9375 L 790.558594 447.132812 L 771.777344 447.132812 L 771.777344 370.023438 Z M 821.976562 370.023438 " fill-opacity="1" fill-rule="nonzero"/><path fill="#ffffff" d="M 843.558594 444.167969 C 838.761719 441.605469 834.988281 437.945312 832.242188 433.183594 C 829.5 428.425781 828.125 422.859375 828.125 416.488281 C 828.125 410.113281 829.511719 404.640625 832.296875 399.84375 C 835.078125 395.046875 838.882812 391.367188 843.71875 388.804688 C 848.550781 386.242188 853.96875 384.960938 859.976562 384.960938 C 865.984375 384.960938 871.398438 386.242188 876.234375 388.804688 C 881.066406 391.367188 884.875 395.046875 887.65625 399.84375 C 890.441406 404.640625 891.828125 410.1875 891.828125 416.488281 C 891.828125 422.785156 890.417969 428.332031 887.601562 433.128906 C 884.78125 437.925781 880.9375 441.605469 876.070312 444.167969 C 871.199219 446.730469 865.761719 448.011719 859.753906 448.011719 C 853.75 448.011719 848.351562 446.730469 843.554688 444.167969 Z M 868.933594 427.800781 C 871.460938 425.164062 872.722656 421.394531 872.722656 416.488281 C 872.722656 411.578125 871.496094 407.808594 869.042969 405.171875 C 866.589844 402.535156 863.566406 401.21875 859.980469 401.21875 C 856.394531 401.21875 853.277344 402.519531 850.863281 405.121094 C 848.445312 407.71875 847.238281 411.507812 847.238281 416.488281 C 847.238281 421.464844 848.425781 425.164062 850.808594 427.800781 C 853.191406 430.441406 856.175781 431.757812 859.761719 431.757812 C 863.34375 431.757812 866.40625 430.441406 868.929688 427.800781 Z M 868.933594 427.800781 " fill-opacity="1" fill-rule="nonzero"/><path fill="#ffffff" d="M 928.847656 388.09375 C 932.144531 386.15625 935.804688 385.183594 939.832031 385.183594 L 939.832031 405.0625 L 934.667969 405.0625 C 929.980469 405.0625 926.464844 406.074219 924.121094 408.085938 C 921.777344 410.097656 920.609375 413.632812 920.609375 418.683594 L 920.609375 447.132812 L 901.824219 447.132812 L 901.824219 385.839844 L 920.609375 385.839844 L 920.609375 396.058594 C 922.804688 392.691406 925.550781 390.035156 928.84375 388.09375 Z M 928.847656 388.09375 " fill-opacity="1" fill-rule="nonzero"/><path fill="#ffffff" d="M 1009.359375 385.839844 L 1009.359375 447.132812 L 990.578125 447.132812 L 990.578125 438.785156 C 988.671875 441.492188 986.09375 443.675781 982.835938 445.320312 C 979.578125 446.96875 975.96875 447.796875 972.015625 447.796875 C 967.328125 447.796875 963.195312 446.753906 959.605469 444.664062 C 956.011719 442.578125 953.234375 439.558594 951.253906 435.601562 C 949.277344 431.652344 948.289062 427 948.289062 421.652344 L 948.289062 385.84375 L 966.960938 385.84375 L 966.960938 419.125 C 966.960938 423.226562 968.023438 426.414062 970.148438 428.679688 C 972.269531 430.953125 975.128906 432.085938 978.71875 432.085938 C 982.308594 432.085938 985.269531 430.953125 987.398438 428.679688 C 989.519531 426.414062 990.582031 423.226562 990.582031 419.125 L 990.582031 385.84375 L 1009.367188 385.84375 Z M 1009.359375 385.839844 " fill-opacity="1" fill-rule="nonzero"/><path fill="#ffffff" d="M 1119.257812 392.101562 C 1123.761719 396.714844 1126.011719 403.121094 1126.011719 411.324219 L 1126.011719 447.132812 L 1107.335938 447.132812 L 1107.335938 413.855469 C 1107.335938 409.898438 1106.296875 406.84375 1104.207031 404.683594 C 1102.117188 402.523438 1099.246094 401.445312 1095.585938 401.445312 C 1091.925781 401.445312 1089.046875 402.523438 1086.964844 404.683594 C 1084.875 406.84375 1083.832031 409.902344 1083.832031 413.855469 L 1083.832031 447.132812 L 1065.160156 447.132812 L 1065.160156 413.855469 C 1065.160156 409.898438 1064.117188 406.84375 1062.027344 404.683594 C 1059.941406 402.523438 1057.066406 401.445312 1053.40625 401.445312 C 1049.746094 401.445312 1046.871094 402.523438 1044.785156 404.683594 C 1042.695312 406.84375 1041.65625 409.902344 1041.65625 413.855469 L 1041.65625 447.132812 L 1022.871094 447.132812 L 1022.871094 385.839844 L 1041.65625 385.839844 L 1041.65625 393.527344 C 1043.5625 390.964844 1046.046875 388.933594 1049.125 387.429688 C 1052.199219 385.929688 1055.679688 385.179688 1059.558594 385.179688 C 1064.171875 385.179688 1068.292969 386.167969 1071.917969 388.144531 C 1075.539062 390.121094 1078.378906 392.941406 1080.429688 396.601562 C 1082.550781 393.238281 1085.449219 390.488281 1089.109375 388.363281 C 1092.769531 386.242188 1096.757812 385.179688 1101.082031 385.179688 C 1108.699219 385.179688 1114.757812 387.484375 1119.257812 392.097656 Z M 1119.257812 392.101562 " fill-opacity="1" fill-rule="nonzero"/></svg>